# xmcd
#
# Track frame offsets:
# 150
# 14760
# 30982
# 50342
# 61135
# 76137
# 92510
# 104550
# 124045
# 135835
# 151167
# 166057
# 179470
# 191157
# 205845
# 224165
# 240442
# 254805
# 269120
# 281495
#
# Disc length: 3972 seconds
#
#
# Revision: 0
# Processed by: cddbd v1.5.1PL2 Copyright (c) Steve Scherf et al.
# Submitted via: FreeRIP 2.944 
#
DISCID=1c0f8214
DTITLE=Camões e Camargo - 20 Sucessos
DYEAR=1900
DGENRE=Sertanejos
TTITLE0=Estátua na cama
TTITLE1=Rodeio da vida
TTITLE2=O eclipse
TTITLE3=Rio Turvo
TTITLE4=O Golpe da emoção
TTITLE5=Mendigo de amor
TTITLE6=Fio de barba
TTITLE7=Quarto solitário
TTITLE8=O caçador
TTITLE9=Caboclo magoado
TTITLE10=Domrindo de touca
TTITLE11=Adolescente
TTITLE12=Estrada velha
TTITLE13=Amor de corôa
TTITLE14=Amantes inimigos
TTITLE15=Gaveta velha
TTITLE16=Sete léguas
TTITLE17=Na beira do cais
TTITLE18=Amantes
TTITLE19=Adeus plano cruzado
EXTD=
EXTT0=
EXTT1=
EXTT2=
EXTT3=
EXTT4=
EXTT5=
EXTT6=
EXTT7=
EXTT8=
EXTT9=
EXTT10=
EXTT11=
EXTT12=
EXTT13=
EXTT14=
EXTT15=
EXTT16=
EXTT17=
EXTT18=
EXTT19=
PLAYORDER=
